# xmcd
#
# Track frame offsets: 
#        150
#        9397
#        32402
#        50625
#        58312
#        73097
#        105092
#        115647
#        142237
#        147155
#        163002
#        219725
#        251147
#        256670
#        265315
#        275780
#        290630
#        310087
#        327400
#
# Disc length: 4674 seconds
#
# Revision: 0
# Processed by: cddbd v1.5.1PL0 Copyright (c) Steve Scherf et al.
# Submitted via: ExactAudioCopy v0.95a5
#
DISCID=28124013
DTITLE=James Brown - Soul Jubilee
DYEAR=1900
DGENRE=Soul
TTITLE0=Turn It Loose
TTITLE1=It's Too Funky In Here
TTITLE2=Gonna Have A Funky Good Time
TTITLE3=Try Me
TTITLE4=Get On a Good Foot
TTITLE5=Get Up Off That Thing
TTITLE6=Georgia
TTITLE7=Hot Pants
TTITLE8=I Got The Feeling
TTITLE9=It's A Man's World
TTITLE10=Cold Sweat
TTITLE11=I Can't Stand It
TTITLE12=Papa's Got a Brand New Bag
TTITLE13=I Feel Good
TTITLE14=Please, Please, Please
TTITLE15=Jam
TTITLE16=Jam1
TTITLE17=Jam2
TTITLE18=Jam3
EXTD=
EXTT0=
EXTT1=
EXTT2=
EXTT3=
EXTT4=
EXTT5=
EXTT6=
EXTT7=
EXTT8=
EXTT9=
EXTT10=
EXTT11=
EXTT12=
EXTT13=
EXTT14=
EXTT15=
EXTT16=
EXTT17=
EXTT18=
PLAYORDER=
